<?xml version="1.0" standalone="no"?><!DOCTYPE svg PUBLIC "-//W3C//DTD SVG 1.1//EN" "http://www.w3.org/Graphics/SVG/1.1/DTD/svg11.dtd"><svg t="1742536988919" class="icon" viewBox="0 0 1181 1024" version="1.1" xmlns="http://www.w3.org/2000/svg" p-id="8381" xmlns:xlink="http://www.w3.org/1999/xlink" width="36.90625" height="32"><path d="M489.472 842.043077c-65.142154 4.017231-95.232 37.336615-85.858462 61.518769 9.452308 24.182154 75.854769 84.913231 187.47077 101.139692 111.537231 16.226462 221.971692 8.822154 264.11323 8.822154 42.062769 0 91.844923-5.986462 66.166154-27.963077a649.294769 649.294769 0 0 0-200.467692-111.064615c-97.910154-32.531692-166.360615-36.627692-231.424-32.531692zM257.575385 552.487385c4.411077 28.199385 33.634462 100.036923 117.917538 154.54523 66.953846 43.480615 143.36 74.594462 224.728615 91.293539 60.416 12.760615 117.523692 30.168615 98.619077-5.277539S615.975385 669.617231 523.500308 607.783385c-92.475077-61.833846-141.233231-69.159385-182.35077-77.824-41.196308-8.664615-87.985231-5.513846-83.574153 22.606769z m28.356923-291.446154c-33.949538 0-31.665231 31.350154-22.60677 58.289231 9.137231 26.781538 47.970462 106.732308 115.003077 155.411692 44.740923 32.374154 101.376 60.494769 169.905231 84.283077-15.281231-87.04-48.049231-155.490462-98.304-205.272616-75.303385-74.752-130.048-92.632615-163.997538-92.632615zM438.193231 28.987077a46.867692 46.867692 0 0 0-30.956308 7.955692 35.524923 35.524923 0 0 0-15.36 24.654769l-1.417846 13.863385c-3.780923 44.583385 3.150769 89.324308 20.243692 131.544615 25.993846 63.803077 65.063385 114.451692 117.051077 151.63077 10.24-34.028308 16.620308-62.227692 18.904616-84.755693 3.465846-33.870769 3.465846-64.433231-18.904616-141.705846-9.924923-34.343385-31.507692-65.378462-64.590769-93.105231a45.213538 45.213538 0 0 0-24.969846-10.082461z" fill="#926538" p-id="8382"></path></svg>