<?xml version="1.0" standalone="no"?><!DOCTYPE svg PUBLIC "-//W3C//DTD SVG 1.1//EN" "http://www.w3.org/Graphics/SVG/1.1/DTD/svg11.dtd"><svg t="1742204291147" class="icon" viewBox="0 0 1024 1024" version="1.1" xmlns="http://www.w3.org/2000/svg" p-id="1860" xmlns:xlink="http://www.w3.org/1999/xlink" width="32" height="32"><path d="M799.117225 727.668111A446.399272 446.399272 0 0 0 896.675651 448.449169a51.046313 51.046313 0 1 0-102.165758 0 346.134953 346.134953 0 1 1-39.345152-160.525295 51.046313 51.046313 0 1 0 90.464597-47.462832 448.300711 448.300711 0 1 0-118.035456 558.730412c1.316381 1.828306 2.92529 3.58348 4.534199 5.19239l204.624044 204.624044a51.046313 51.046313 0 0 0 72.181534-72.181534l-204.624044-204.624043a51.558238 51.558238 0 0 0-5.119258-4.5342z" fill="#131313" p-id="1861"></path></svg>