<?xml version="1.0" standalone="no"?><!DOCTYPE svg PUBLIC "-//W3C//DTD SVG 1.1//EN" "http://www.w3.org/Graphics/SVG/1.1/DTD/svg11.dtd"><svg t="1742546770985" class="icon" viewBox="0 0 1024 1024" version="1.1" xmlns="http://www.w3.org/2000/svg" p-id="13361" xmlns:xlink="http://www.w3.org/1999/xlink" width="32" height="32"><path d="M437.205333 339.626667a42.666667 42.666667 0 0 1 19.413334 19.370666l51.754666 104.874667a42.666667 42.666667 0 0 0 32.128 23.338667l115.754667 16.853333a42.666667 42.666667 0 0 1 23.637333 72.746667l-83.754666 81.664a42.666667 42.666667 0 0 0-12.288 37.76l19.797333 115.285333a42.666667 42.666667 0 0 1-61.909333 44.970667l-103.552-54.442667a42.666667 42.666667 0 0 0-39.68 0l-103.552 54.442667a42.666667 42.666667 0 0 1-61.909334-44.970667l19.754667-115.285333a42.666667 42.666667 0 0 0-12.245333-37.76l-83.754667-81.664a42.666667 42.666667 0 0 1 23.637333-72.746667l115.754667-16.853333a42.666667 42.666667 0 0 0 32.128-23.338667l51.754667-104.874667a42.666667 42.666667 0 0 1 57.173333-19.370666z m368.682667-188.117334a21.333333 21.333333 0 0 1 5.802667 12.416l7.765333 70.869334a21.333333 21.333333 0 0 0 11.093333 16.469333l62.805334 33.792a21.333333 21.333333 0 0 1-1.28 38.229333l-65.024 29.312a21.333333 21.333333 0 0 0-12.245334 15.616l-12.714666 70.186667a21.333333 21.333333 0 0 1-36.778667 10.538667l-47.957333-52.778667a21.333333 21.333333 0 0 0-18.645334-6.784l-70.656 9.6a21.333333 21.333333 0 0 1-21.376-31.744l35.370667-61.866667a21.333333 21.333333 0 0 0 0.682667-19.882666l-30.976-64.213334a21.333333 21.333333 0 0 1 23.552-30.165333l69.845333 14.506667a21.333333 21.333333 0 0 0 19.072-5.461334l51.498667-49.28a21.333333 21.333333 0 0 1 30.165333 0.64z" fill="#191a1c" p-id="13362"></path></svg>